<?xml version="1.0" encoding="UTF-8"?>
<svg xmlns="http://www.w3.org/2000/svg" width="12" height="6" viewBox="0 0 12 6" fill="none">
  <path d="M11.0313 5.78125C10.8854 5.92708 10.7083 6 10.5 6C10.2917 6 10.1146 5.92708 9.96875 5.78125L6 1.8125L2.03125 5.78125C1.88542 5.92708 1.70833 6 1.5 6C1.29167 6 1.11458 5.92708 0.968751 5.78125C0.822917 5.63542 0.75 5.45833 0.75 5.25C0.75 5.04167 0.822917 4.86458 0.96875 4.71875L5.46875 0.218751C5.61458 0.0729172 5.79167 4.77183e-07 6 4.5897e-07C6.20833 4.40756e-07 6.38542 0.0729171 6.53125 0.21875L11.0313 4.71875C11.1771 4.86458 11.25 5.04167 11.25 5.25C11.25 5.45833 11.1771 5.63542 11.0313 5.78125Z" fill="#333333"></path>
</svg>
