<?xml version="1.0" encoding="UTF-8"?>
<svg xmlns="http://www.w3.org/2000/svg" width="12" height="6" viewBox="0 0 12 6" fill="none">
  <path d="M0.96875 0.21875C1.11458 0.0729165 1.29167 0 1.5 0C1.70833 0 1.88542 0.0729165 2.03125 0.21875L6 4.1875L9.96875 0.21875C10.1146 0.0729165 10.2917 0 10.5 0C10.7083 0 10.8854 0.0729165 11.0312 0.21875C11.1771 0.364583 11.25 0.541667 11.25 0.75C11.25 0.958333 11.1771 1.13542 11.0312 1.28125L6.53125 5.78125C6.38542 5.92708 6.20833 6 6 6C5.79167 6 5.61458 5.92708 5.46875 5.78125L0.96875 1.28125C0.822917 1.13542 0.75 0.958333 0.75 0.75C0.75 0.541667 0.822917 0.364583 0.96875 0.21875Z" fill="#333333"></path>
</svg>
